<svg xmlns="http://www.w3.org/2000/svg" xmlns:xlink="http://www.w3.org/1999/xlink" width="660" zoomAndPan="magnify" viewBox="0 0 495 165.000002" height="220" preserveAspectRatio="xMidYMid meet" version="1.0"><defs><g/><clipPath id="0a157b141a"><path d="M 27 28 L 129 28 L 129 113 L 27 113 Z M 27 28 " clip-rule="nonzero"/></clipPath><clipPath id="132f99c7a5"><path d="M 41.238281 10.058594 L 129.613281 29.425781 L 110.246094 117.804688 L 21.867188 98.433594 Z M 41.238281 10.058594 " clip-rule="nonzero"/></clipPath><clipPath id="8cb7ab8331"><path d="M 41.238281 10.058594 L 129.613281 29.425781 L 110.246094 117.804688 L 21.867188 98.433594 Z M 41.238281 10.058594 " clip-rule="nonzero"/></clipPath></defs><g clip-path="url(#0a157b141a)"><g clip-path="url(#132f99c7a5)"><g clip-path="url(#8cb7ab8331)"><path fill="#ffffff" d="M 128.507812 34.769531 C 128.503906 33.46875 128.039062 32.167969 127.203125 30.996094 C 126.253906 29.667969 125.230469 28.804688 124.046875 28.375 C 122.863281 27.949219 121.519531 27.953125 119.9375 28.375 C 119.480469 28.496094 119.027344 28.632812 118.574219 28.777344 C 118.125 28.917969 117.671875 29.066406 117.222656 29.210938 C 113.4375 30.417969 109.871094 32.050781 106.441406 33.9375 C 103.011719 35.824219 99.722656 37.964844 96.492188 40.1875 C 94.039062 41.875 91.542969 42.972656 88.957031 43.449219 C 86.367188 43.921875 83.6875 43.777344 80.859375 42.972656 C 76.515625 41.734375 72.175781 40.46875 67.835938 39.210938 C 63.492188 37.957031 59.148438 36.710938 54.789062 35.519531 C 52.476562 34.886719 50.144531 34.316406 47.800781 33.789062 C 45.457031 33.257812 43.101562 32.773438 40.75 32.308594 C 39.980469 32.15625 39.097656 32.015625 38.292969 32.140625 C 37.492188 32.265625 36.773438 32.660156 36.339844 33.570312 C 35.898438 34.503906 36.0625 35.273438 36.492188 35.941406 C 36.917969 36.613281 37.613281 37.179688 38.222656 37.703125 C 39.542969 38.828125 40.878906 39.9375 42.230469 41.027344 C 43.578125 42.117188 44.941406 43.191406 46.320312 44.246094 C 48.800781 46.144531 51.316406 48.003906 53.824219 49.871094 C 56.328125 51.742188 58.828125 53.617188 61.277344 55.554688 C 63.035156 56.945312 63.867188 58.3125 63.808594 59.664062 C 63.75 61.015625 62.792969 62.351562 60.972656 63.679688 C 60.078125 64.328125 59.15625 64.941406 58.230469 65.550781 C 57.308594 66.164062 56.382812 66.773438 55.488281 67.421875 C 55.390625 67.496094 55.167969 67.714844 55.128906 68.03125 C 55.085938 68.40625 55.332031 68.832031 55.679688 68.96875 C 55.957031 69.078125 56.246094 69.003906 56.34375 68.941406 C 57.515625 68.191406 58.691406 67.441406 59.847656 66.667969 C 61 65.894531 62.136719 65.089844 63.226562 64.234375 C 63.671875 63.886719 64.0625 63.425781 64.394531 62.917969 C 64.726562 62.410156 65.003906 61.855469 65.210938 61.316406 C 65.824219 59.742188 65.722656 58.386719 65.175781 57.203125 C 64.632812 56.019531 63.640625 55.003906 62.472656 54.109375 C 59.792969 52.054688 57.082031 50.039062 54.371094 48.019531 C 51.660156 46.003906 48.953125 43.984375 46.273438 41.925781 C 44.835938 40.820312 43.4375 39.664062 42.046875 38.496094 C 40.660156 37.324219 39.28125 36.140625 37.886719 34.980469 C 38.003906 34.699219 38.121094 34.421875 38.238281 34.140625 C 38.792969 34.160156 39.363281 34.132812 39.921875 34.132812 C 40.480469 34.128906 41.035156 34.15625 41.5625 34.285156 C 44.300781 34.941406 47.03125 35.613281 49.757812 36.300781 C 52.484375 36.988281 55.210938 37.691406 57.925781 38.417969 C 62.109375 39.535156 66.277344 40.703125 70.449219 41.855469 C 74.621094 43.011719 78.796875 44.152344 82.996094 45.210938 C 85.191406 45.765625 87.359375 45.867188 89.457031 45.503906 C 91.554688 45.140625 93.582031 44.308594 95.503906 42.988281 C 96.210938 42.503906 96.933594 42.050781 97.660156 41.601562 C 98.386719 41.152344 99.117188 40.707031 99.839844 40.253906 C 102.976562 38.273438 106.140625 36.347656 109.417969 34.660156 C 112.699219 32.96875 116.09375 31.515625 119.691406 30.480469 C 121.132812 30.070312 122.273438 29.992188 123.226562 30.289062 C 124.179688 30.585938 124.945312 31.253906 125.640625 32.324219 C 126.246094 33.257812 126.496094 34.265625 126.359375 35.292969 C 126.21875 36.320312 125.695312 37.367188 124.75 38.375 C 124.105469 39.0625 123.417969 39.714844 122.699219 40.339844 C 121.980469 40.960938 121.234375 41.550781 120.476562 42.109375 C 116.984375 44.675781 113.472656 47.21875 109.964844 49.765625 C 106.457031 52.308594 102.949219 54.855469 99.457031 57.425781 C 97.367188 58.964844 95.894531 60.832031 94.910156 62.941406 C 93.921875 65.050781 93.417969 67.402344 93.265625 69.910156 C 92.957031 75.046875 92.683594 80.183594 92.394531 85.320312 C 92.105469 90.460938 91.804688 95.59375 91.445312 100.726562 C 91.351562 102.074219 91.125 103.414062 90.839844 104.746094 C 90.550781 106.078125 90.195312 107.398438 89.847656 108.710938 C 89.75 109.085938 89.472656 109.5 89.132812 109.839844 C 88.792969 110.179688 88.386719 110.445312 88.023438 110.523438 C 87.777344 110.574219 87.429688 110.355469 87.089844 110.035156 C 86.75 109.714844 86.417969 109.296875 86.203125 108.957031 C 85.921875 108.507812 85.671875 108.023438 85.464844 107.523438 C 85.257812 107.019531 85.097656 106.5 85 105.984375 C 84.386719 102.761719 83.8125 99.535156 83.230469 96.308594 C 82.652344 93.082031 82.066406 89.855469 81.441406 86.640625 C 81.136719 85.0625 80.832031 83.480469 80.464844 81.910156 C 80.101562 80.34375 79.679688 78.792969 79.136719 77.292969 C 78.5625 75.699219 77.578125 74.644531 76.339844 74.136719 C 75.097656 73.628906 73.605469 73.667969 72.003906 74.253906 C 71.324219 74.503906 70.671875 74.8125 70.019531 75.140625 C 69.367188 75.464844 68.722656 75.804688 68.0625 76.109375 C 65.40625 77.34375 62.730469 78.085938 60.007812 78.300781 C 57.28125 78.511719 54.511719 78.195312 51.671875 77.304688 C 48.535156 76.320312 45.375 75.410156 42.175781 74.671875 C 38.976562 73.9375 35.738281 73.378906 32.4375 73.101562 C 31.617188 73.035156 30.734375 72.914062 29.941406 73.023438 C 29.148438 73.128906 28.449219 73.46875 28.003906 74.320312 C 27.535156 75.210938 27.6875 75.980469 28.09375 76.679688 C 28.5 77.375 29.160156 78 29.699219 78.59375 C 30.957031 79.96875 32.234375 81.328125 33.515625 82.683594 C 34.800781 84.035156 36.09375 85.378906 37.394531 86.714844 C 38.902344 88.269531 40.070312 89.945312 40.820312 91.789062 C 41.570312 93.628906 41.90625 95.628906 41.746094 97.824219 C 41.558594 100.453125 42.472656 102.097656 43.902344 103.027344 C 45.332031 103.957031 47.28125 104.175781 49.164062 103.953125 C 50.140625 103.839844 50.890625 103.507812 51.390625 102.960938 C 51.894531 102.414062 52.148438 101.644531 52.136719 100.660156 C 52.121094 99.371094 52.0625 98.082031 51.980469 96.789062 C 51.898438 95.5 51.789062 94.210938 51.675781 92.925781 C 51.609375 92.207031 51.527344 91.480469 51.40625 90.765625 C 51.285156 90.046875 51.125 89.34375 50.910156 88.65625 C 50.871094 88.527344 50.785156 88.417969 50.664062 88.3125 C 50.648438 88.296875 50.472656 88.125 50.25 88.03125 C 49.839844 87.863281 49.222656 87.957031 48.886719 88.363281 C 48.648438 88.65625 48.644531 89 48.632812 89.230469 C 48.617188 89.53125 48.703125 89.832031 48.804688 90.132812 C 48.910156 90.4375 49.027344 90.746094 49.074219 91.050781 C 49.285156 92.484375 49.523438 93.917969 49.738281 95.347656 C 49.949219 96.78125 50.136719 98.21875 50.238281 99.660156 C 50.316406 100.722656 50.152344 101.390625 49.703125 101.765625 C 49.253906 102.136719 48.515625 102.21875 47.445312 102.109375 C 45.984375 101.964844 45.007812 101.683594 44.417969 101.070312 C 43.824219 100.457031 43.617188 99.511719 43.691406 98.042969 C 43.828125 95.457031 43.421875 93.117188 42.539062 90.972656 C 41.65625 88.828125 40.296875 86.882812 38.523438 85.085938 C 37.457031 84.007812 36.398438 82.917969 35.347656 81.824219 C 34.296875 80.726562 33.253906 79.625 32.214844 78.519531 C 31.777344 78.046875 31.359375 77.550781 30.921875 77.015625 C 30.488281 76.480469 30.027344 75.902344 29.5 75.269531 C 29.933594 75.230469 30.253906 75.191406 30.515625 75.164062 C 30.78125 75.132812 30.988281 75.117188 31.195312 75.125 C 34.558594 75.207031 37.847656 75.703125 41.082031 76.429688 C 44.316406 77.160156 47.5 78.125 50.644531 79.152344 C 54.042969 80.257812 57.304688 80.605469 60.488281 80.285156 C 63.671875 79.960938 66.777344 78.972656 69.867188 77.398438 C 70.34375 77.152344 70.824219 76.90625 71.308594 76.675781 C 71.796875 76.449219 72.289062 76.234375 72.792969 76.0625 C 73.90625 75.6875 74.847656 75.648438 75.613281 75.976562 C 76.382812 76.300781 76.976562 76.996094 77.398438 78.082031 C 77.761719 79.015625 78.085938 79.976562 78.363281 80.953125 C 78.640625 81.925781 78.867188 82.910156 79.03125 83.898438 C 79.492188 86.671875 79.867188 89.457031 80.261719 92.242188 C 80.550781 94.269531 80.898438 96.363281 81.609375 100.554688 C 81.609375 100.554688 81.925781 102.410156 82.570312 105.050781 C 83.042969 106.996094 83.375 108.046875 84 109.207031 C 84.398438 109.960938 85.019531 110.945312 86.027344 111.726562 C 86.566406 112.140625 87.167969 112.445312 87.863281 112.589844 C 88.675781 112.753906 89.386719 112.503906 89.964844 112.027344 C 90.546875 111.550781 90.992188 110.84375 91.28125 110.101562 C 91.597656 109.285156 91.875 108.441406 92.113281 107.589844 C 92.355469 106.738281 92.554688 105.875 92.71875 105.011719 C 93.6875 99.800781 94.160156 94.546875 94.421875 89.28125 C 94.6875 84.015625 94.746094 78.734375 94.890625 73.472656 C 94.992188 69.894531 95.585938 66.71875 96.914062 63.9375 C 98.242188 61.152344 100.300781 58.753906 103.332031 56.726562 C 106.304688 54.742188 109.234375 52.691406 112.136719 50.601562 C 115.039062 48.515625 117.917969 46.390625 120.789062 44.257812 C 121.921875 43.417969 123.035156 42.527344 124.09375 41.574219 C 125.152344 40.625 126.15625 39.617188 127.0625 38.546875 C 128.058594 37.375 128.515625 36.070312 128.507812 34.769531 Z M 128.507812 34.769531 " fill-opacity="1" fill-rule="nonzero"/></g></g></g><g fill="#ffffff" fill-opacity="1"><g transform="translate(129.979121, 133.925042)"><g><path d="M 16.90625 -40.4375 C 17.46875 -40.4375 17.925781 -40.257812 18.28125 -39.90625 C 18.632812 -39.550781 18.8125 -39.09375 18.8125 -38.53125 L 18.8125 -1.90625 C 18.8125 -1.394531 18.632812 -0.945312 18.28125 -0.5625 C 17.925781 -0.1875 17.46875 0 16.90625 0 L 5.71875 0 C 5.207031 0 4.757812 -0.1875 4.375 -0.5625 C 4 -0.945312 3.8125 -1.394531 3.8125 -1.90625 L 3.8125 -38.53125 C 3.8125 -39.09375 4 -39.550781 4.375 -39.90625 C 4.757812 -40.257812 5.207031 -40.4375 5.71875 -40.4375 Z M 16.90625 -56.578125 C 17.46875 -56.578125 17.925781 -56.382812 18.28125 -56 C 18.632812 -55.625 18.8125 -55.1875 18.8125 -54.6875 L 18.8125 -46.765625 C 18.8125 -46.253906 18.632812 -45.804688 18.28125 -45.421875 C 17.925781 -45.046875 17.46875 -44.859375 16.90625 -44.859375 L 5.71875 -44.859375 C 5.207031 -44.859375 4.757812 -45.046875 4.375 -45.421875 C 4 -45.804688 3.8125 -46.253906 3.8125 -46.765625 L 3.8125 -54.6875 C 3.8125 -55.238281 4 -55.691406 4.375 -56.046875 C 4.757812 -56.398438 5.207031 -56.578125 5.71875 -56.578125 Z M 16.90625 -56.578125 "/></g></g></g><g fill="#ffffff" fill-opacity="1"><g transform="translate(152.595438, 133.925042)"><g><path d="M 5.71875 0 C 5.207031 0 4.757812 -0.175781 4.375 -0.53125 C 4 -0.882812 3.8125 -1.316406 3.8125 -1.828125 L 3.8125 -38.53125 C 3.8125 -39.09375 4 -39.550781 4.375 -39.90625 C 4.757812 -40.257812 5.207031 -40.4375 5.71875 -40.4375 L 16.90625 -40.4375 C 17.46875 -40.4375 17.925781 -40.257812 18.28125 -39.90625 C 18.632812 -39.550781 18.8125 -39.09375 18.8125 -38.53125 L 18.8125 -36.625 C 19.363281 -37.4375 20.273438 -38.210938 21.546875 -38.953125 C 22.816406 -39.691406 24.238281 -40.300781 25.8125 -40.78125 C 27.382812 -41.257812 28.9375 -41.5 30.46875 -41.5 C 35.539062 -41.5 39.179688 -40.226562 41.390625 -37.6875 C 43.597656 -35.15625 44.703125 -31.554688 44.703125 -26.890625 L 44.703125 -1.828125 C 44.703125 -1.316406 44.523438 -0.882812 44.171875 -0.53125 C 43.816406 -0.175781 43.359375 0 42.796875 0 L 31.609375 0 C 31.097656 0 30.648438 -0.175781 30.265625 -0.53125 C 29.890625 -0.882812 29.703125 -1.316406 29.703125 -1.828125 L 29.703125 -24.296875 C 29.703125 -25.710938 29.382812 -26.800781 28.75 -27.5625 C 28.113281 -28.320312 27.375 -28.851562 26.53125 -29.15625 C 25.695312 -29.46875 24.953125 -29.625 24.296875 -29.625 C 23.585938 -29.625 22.800781 -29.46875 21.9375 -29.15625 C 21.070312 -28.851562 20.332031 -28.320312 19.71875 -27.5625 C 19.113281 -26.800781 18.8125 -25.710938 18.8125 -24.296875 L 18.8125 -1.828125 C 18.8125 -1.316406 18.632812 -0.882812 18.28125 -0.53125 C 17.925781 -0.175781 17.46875 0 16.90625 0 Z M 5.71875 0 "/></g></g></g><g fill="#ffffff" fill-opacity="1"><g transform="translate(201.102491, 133.925042)"><g><path d="M 15 -13.09375 C 15.5625 -13.09375 16.019531 -12.914062 16.375 -12.5625 C 16.726562 -12.207031 16.90625 -11.75 16.90625 -11.1875 L 16.90625 -1.90625 C 16.90625 -1.394531 16.726562 -0.945312 16.375 -0.5625 C 16.019531 -0.1875 15.5625 0 15 0 L 5.640625 0 C 5.128906 0 4.695312 -0.1875 4.34375 -0.5625 C 3.988281 -0.945312 3.8125 -1.394531 3.8125 -1.90625 L 3.8125 -11.1875 C 3.8125 -11.75 3.988281 -12.207031 4.34375 -12.5625 C 4.695312 -12.914062 5.128906 -13.09375 5.640625 -13.09375 Z M 15 -13.09375 "/></g></g></g><g fill="#ffffff" fill-opacity="1"><g transform="translate(221.815081, 133.925042)"><g><path d="M 37.390625 -2.96875 C 37.492188 -2.050781 37.40625 -1.375 37.125 -0.9375 C 36.84375 -0.507812 36.398438 -0.222656 35.796875 -0.078125 C 34.773438 0.128906 33.335938 0.34375 31.484375 0.5625 C 29.628906 0.789062 27.359375 0.90625 24.671875 0.90625 C 22.285156 0.90625 20.128906 0.503906 18.203125 -0.296875 C 16.273438 -1.109375 14.738281 -2.40625 13.59375 -4.1875 C 12.445312 -5.96875 11.875 -8.28125 11.875 -11.125 L 11.875 -27.34375 L 5.71875 -27.34375 C 5.207031 -27.34375 4.757812 -27.53125 4.375 -27.90625 C 4 -28.289062 3.8125 -28.738281 3.8125 -29.25 L 3.8125 -38.609375 C 3.8125 -39.117188 4 -39.550781 4.375 -39.90625 C 4.757812 -40.257812 5.207031 -40.4375 5.71875 -40.4375 L 11.875 -40.4375 L 11.875 -48.8125 C 11.875 -49.320312 12.0625 -49.753906 12.4375 -50.109375 C 12.820312 -50.460938 13.269531 -50.640625 13.78125 -50.640625 L 25.0625 -50.640625 C 25.5625 -50.640625 25.988281 -50.460938 26.34375 -50.109375 C 26.707031 -49.753906 26.890625 -49.320312 26.890625 -48.8125 L 26.890625 -40.4375 L 33.578125 -40.4375 C 34.140625 -40.4375 34.597656 -40.257812 34.953125 -39.90625 C 35.304688 -39.550781 35.484375 -39.117188 35.484375 -38.609375 L 35.484375 -29.25 C 35.484375 -28.738281 35.304688 -28.289062 34.953125 -27.90625 C 34.597656 -27.53125 34.140625 -27.34375 33.578125 -27.34375 L 26.890625 -27.34375 L 26.890625 -17.75 C 26.890625 -15.8125 27.09375 -14.398438 27.5 -13.515625 C 27.90625 -12.628906 28.675781 -12.117188 29.8125 -11.984375 C 30.957031 -11.859375 32.617188 -11.925781 34.796875 -12.1875 C 35.515625 -12.289062 35.988281 -12.175781 36.21875 -11.84375 C 36.445312 -11.507812 36.582031 -11.066406 36.625 -10.515625 C 36.675781 -10.253906 36.753906 -9.628906 36.859375 -8.640625 C 36.960938 -7.648438 37.0625 -6.609375 37.15625 -5.515625 C 37.257812 -4.429688 37.335938 -3.582031 37.390625 -2.96875 Z M 37.390625 -2.96875 "/></g></g></g><g fill="#ffffff" fill-opacity="1"><g transform="translate(263.087961, 133.925042)"><g><path d="M 36.484375 -40.59375 C 36.941406 -40.382812 37.191406 -40.015625 37.234375 -39.484375 C 37.285156 -38.953125 37.285156 -38.40625 37.234375 -37.84375 C 37.191406 -37.488281 37.128906 -36.828125 37.046875 -35.859375 C 36.972656 -34.898438 36.875 -33.835938 36.75 -32.671875 C 36.625 -31.503906 36.519531 -30.453125 36.4375 -29.515625 C 36.363281 -28.578125 36.300781 -27.953125 36.25 -27.640625 C 36.144531 -26.773438 35.835938 -26.148438 35.328125 -25.765625 C 34.828125 -25.390625 34.195312 -25.304688 33.4375 -25.515625 C 32.625 -25.765625 31.582031 -26.039062 30.3125 -26.34375 C 29.039062 -26.65625 27.671875 -26.785156 26.203125 -26.734375 C 25.285156 -26.734375 24.253906 -26.53125 23.109375 -26.125 C 21.972656 -25.71875 20.984375 -24.96875 20.140625 -23.875 C 19.304688 -22.78125 18.890625 -21.144531 18.890625 -18.96875 L 18.890625 -1.828125 L 18.8125 -1.75 L 18.8125 -1.828125 C 18.8125 -1.316406 18.632812 -0.882812 18.28125 -0.53125 C 17.925781 -0.175781 17.492188 0 16.984375 0 L 5.71875 0 C 5.207031 0 4.757812 -0.175781 4.375 -0.53125 C 4 -0.882812 3.8125 -1.316406 3.8125 -1.828125 L 3.8125 -38.53125 C 3.8125 -39.09375 4 -39.550781 4.375 -39.90625 C 4.757812 -40.257812 5.207031 -40.4375 5.71875 -40.4375 L 16.984375 -40.4375 C 17.492188 -40.4375 17.925781 -40.257812 18.28125 -39.90625 C 18.632812 -39.550781 18.8125 -39.09375 18.8125 -38.53125 L 18.8125 -36.625 C 19.269531 -37.238281 20.082031 -37.925781 21.25 -38.6875 C 22.414062 -39.445312 23.8125 -40.101562 25.4375 -40.65625 C 27.0625 -41.21875 28.738281 -41.5 30.46875 -41.5 C 31.9375 -41.5 33.175781 -41.394531 34.1875 -41.1875 C 35.207031 -40.988281 35.972656 -40.789062 36.484375 -40.59375 Z M 36.484375 -40.59375 "/></g></g></g><g fill="#ffffff" fill-opacity="1"><g transform="translate(304.208542, 133.925042)"><g><path d="M 43.25 -28.328125 C 43.300781 -28.023438 43.328125 -27.71875 43.328125 -27.40625 C 43.328125 -27.101562 43.328125 -26.800781 43.328125 -26.5 L 43.328125 -1.90625 C 43.328125 -1.394531 43.148438 -0.945312 42.796875 -0.5625 C 42.441406 -0.1875 41.984375 0 41.421875 0 L 30.234375 0 C 29.722656 0 29.273438 -0.1875 28.890625 -0.5625 C 28.515625 -0.945312 28.328125 -1.394531 28.328125 -1.90625 L 28.328125 -3.421875 C 26.960938 -1.953125 25.097656 -0.863281 22.734375 -0.15625 C 20.367188 0.550781 18.125 0.90625 16 0.90625 C 15.382812 0.90625 14.425781 0.78125 13.125 0.53125 C 11.832031 0.28125 10.460938 -0.222656 9.015625 -0.984375 C 7.578125 -1.742188 6.347656 -2.882812 5.328125 -4.40625 C 4.316406 -5.9375 3.8125 -7.972656 3.8125 -10.515625 C 3.8125 -13.453125 4.421875 -15.882812 5.640625 -17.8125 C 6.859375 -19.75 8.40625 -21.25 10.28125 -22.3125 C 12.15625 -23.375 14.0625 -24.0625 16 -24.375 C 17.925781 -24.625 20.066406 -24.820312 22.421875 -24.96875 C 24.785156 -25.125 26.753906 -25.226562 28.328125 -25.28125 C 28.328125 -26.039062 28.175781 -26.8125 27.875 -27.59375 C 27.570312 -28.382812 27.015625 -29.046875 26.203125 -29.578125 C 25.390625 -30.117188 24.144531 -30.390625 22.46875 -30.390625 C 20.175781 -30.390625 18.023438 -30.070312 16.015625 -29.4375 C 14.015625 -28.800781 12.457031 -28.253906 11.34375 -27.796875 C 10.425781 -27.441406 9.789062 -27.671875 9.4375 -28.484375 C 9.34375 -28.679688 9.15625 -29.109375 8.875 -29.765625 C 8.59375 -30.429688 8.285156 -31.171875 7.953125 -31.984375 C 7.628906 -32.796875 7.335938 -33.519531 7.078125 -34.15625 C 6.828125 -34.789062 6.675781 -35.1875 6.625 -35.34375 C 6.519531 -35.644531 6.492188 -36.007812 6.546875 -36.4375 C 6.597656 -36.875 6.851562 -37.191406 7.3125 -37.390625 C 8.175781 -37.847656 9.429688 -38.40625 11.078125 -39.0625 C 12.734375 -39.726562 14.675781 -40.300781 16.90625 -40.78125 C 19.132812 -41.257812 21.570312 -41.5 24.21875 -41.5 C 27.207031 -41.5 30.085938 -41.054688 32.859375 -40.171875 C 35.628906 -39.285156 37.960938 -37.875 39.859375 -35.9375 C 41.765625 -34.007812 42.894531 -31.472656 43.25 -28.328125 Z M 23.15625 -9.296875 C 24.78125 -9.296875 25.945312 -9.625 26.65625 -10.28125 C 27.363281 -10.9375 27.816406 -11.59375 28.015625 -12.25 C 28.222656 -12.914062 28.328125 -13.25 28.328125 -13.25 L 28.328125 -17.890625 C 28.328125 -17.890625 27.804688 -17.890625 26.765625 -17.890625 C 25.722656 -17.890625 24.566406 -17.785156 23.296875 -17.578125 C 22.035156 -17.378906 21.019531 -16.976562 20.25 -16.375 C 19.289062 -15.664062 18.75 -14.738281 18.625 -13.59375 C 18.5 -12.445312 18.816406 -11.441406 19.578125 -10.578125 C 20.335938 -9.722656 21.53125 -9.296875 23.15625 -9.296875 Z M 23.15625 -9.296875 "/></g></g></g><g fill="#ffffff" fill-opacity="1"><g transform="translate(351.344902, 133.925042)"><g><path d="M 45.625 -40.4375 C 46.28125 -40.4375 46.742188 -40.207031 47.015625 -39.75 C 47.296875 -39.289062 47.285156 -38.632812 46.984375 -37.78125 C 46.890625 -37.519531 46.585938 -36.703125 46.078125 -35.328125 C 45.566406 -33.960938 44.941406 -32.222656 44.203125 -30.109375 C 43.472656 -28.003906 42.660156 -25.734375 41.765625 -23.296875 C 40.878906 -20.859375 39.992188 -18.421875 39.109375 -15.984375 C 38.222656 -13.554688 37.394531 -11.3125 36.625 -9.25 C 35.863281 -7.195312 35.242188 -5.507812 34.765625 -4.1875 C 34.285156 -2.863281 33.992188 -2.101562 33.890625 -1.90625 C 33.585938 -1.238281 33.28125 -0.753906 32.96875 -0.453125 C 32.664062 -0.148438 32.160156 0 31.453125 0 L 19.578125 0 C 18.910156 0 18.410156 -0.148438 18.078125 -0.453125 C 17.753906 -0.753906 17.441406 -1.238281 17.140625 -1.90625 C 17.035156 -2.101562 16.738281 -2.863281 16.25 -4.1875 C 15.769531 -5.507812 15.148438 -7.195312 14.390625 -9.25 C 13.628906 -11.3125 12.800781 -13.554688 11.90625 -15.984375 C 11.019531 -18.421875 10.132812 -20.859375 9.25 -23.296875 C 8.363281 -25.734375 7.550781 -28.003906 6.8125 -30.109375 C 6.082031 -32.222656 5.460938 -33.960938 4.953125 -35.328125 C 4.441406 -36.703125 4.132812 -37.519531 4.03125 -37.78125 C 3.726562 -38.632812 3.71875 -39.289062 4 -39.75 C 4.28125 -40.207031 4.75 -40.4375 5.40625 -40.4375 L 16.609375 -40.4375 C 17.773438 -40.4375 18.546875 -40.242188 18.921875 -39.859375 C 19.304688 -39.484375 19.675781 -38.789062 20.03125 -37.78125 C 20.082031 -37.625 20.257812 -36.984375 20.5625 -35.859375 C 20.863281 -34.742188 21.21875 -33.363281 21.625 -31.71875 C 22.03125 -30.070312 22.460938 -28.347656 22.921875 -26.546875 C 23.378906 -24.742188 23.796875 -23.039062 24.171875 -21.4375 C 24.554688 -19.832031 24.875 -18.535156 25.125 -17.546875 C 25.382812 -16.554688 25.515625 -16.0625 25.515625 -16.0625 C 25.515625 -16.0625 25.640625 -16.554688 25.890625 -17.546875 C 26.148438 -18.535156 26.46875 -19.832031 26.84375 -21.4375 C 27.226562 -23.039062 27.644531 -24.742188 28.09375 -26.546875 C 28.550781 -28.347656 28.984375 -30.070312 29.390625 -31.71875 C 29.796875 -33.363281 30.148438 -34.742188 30.453125 -35.859375 C 30.765625 -36.984375 30.945312 -37.625 31 -37.78125 C 31.40625 -38.789062 31.796875 -39.484375 32.171875 -39.859375 C 32.554688 -40.242188 33.304688 -40.4375 34.421875 -40.4375 Z M 45.625 -40.4375 "/></g></g></g><g fill="#ffffff" fill-opacity="1"><g transform="translate(402.36488, 133.925042)"><g><path d="M 39.90625 -15.609375 L 18.8125 -15.609375 C 19.320312 -14.085938 20.082031 -12.894531 21.09375 -12.03125 C 22.113281 -11.164062 23.21875 -10.566406 24.40625 -10.234375 C 25.601562 -9.910156 26.679688 -9.722656 27.640625 -9.671875 C 29.972656 -9.617188 31.898438 -9.78125 33.421875 -10.15625 C 34.953125 -10.539062 36.40625 -11.039062 37.78125 -11.65625 C 38.28125 -11.851562 38.769531 -11.914062 39.25 -11.84375 C 39.738281 -11.769531 40.132812 -11.453125 40.4375 -10.890625 C 40.539062 -10.640625 40.742188 -10.117188 41.046875 -9.328125 C 41.347656 -8.546875 41.648438 -7.75 41.953125 -6.9375 C 42.265625 -6.125 42.472656 -5.5625 42.578125 -5.25 C 42.828125 -4.644531 42.847656 -4.140625 42.640625 -3.734375 C 42.441406 -3.328125 42.164062 -2.992188 41.8125 -2.734375 C 39.625 -1.367188 37.09375 -0.421875 34.21875 0.109375 C 31.351562 0.640625 28.601562 0.90625 25.96875 0.90625 C 21.25 0.90625 17.238281 -0.0390625 13.9375 -1.9375 C 10.632812 -3.84375 8.117188 -6.40625 6.390625 -9.625 C 4.671875 -12.851562 3.8125 -16.421875 3.8125 -20.328125 C 3.8125 -24.242188 4.660156 -27.800781 6.359375 -31 C 8.054688 -34.195312 10.503906 -36.742188 13.703125 -38.640625 C 16.898438 -40.546875 20.785156 -41.5 25.359375 -41.5 C 29.367188 -41.5 32.78125 -40.546875 35.59375 -38.640625 C 38.414062 -36.742188 40.585938 -34.195312 42.109375 -31 C 43.640625 -27.800781 44.40625 -24.242188 44.40625 -20.328125 C 44.40625 -18.609375 44.175781 -17.390625 43.71875 -16.671875 C 43.257812 -15.960938 41.988281 -15.609375 39.90625 -15.609375 Z M 25.359375 -31 C 23.273438 -31 21.609375 -30.300781 20.359375 -28.90625 C 19.117188 -27.507812 18.5 -25.617188 18.5 -23.234375 L 30.765625 -23.234375 C 30.765625 -25.566406 30.304688 -27.441406 29.390625 -28.859375 C 28.484375 -30.285156 27.140625 -31 25.359375 -31 Z M 25.359375 -31 "/></g></g></g><g fill="#ffffff" fill-opacity="1"><g transform="translate(450.567335, 133.925042)"><g><path d="M 16.90625 -56.578125 C 17.46875 -56.578125 17.925781 -56.398438 18.28125 -56.046875 C 18.632812 -55.691406 18.8125 -55.238281 18.8125 -54.6875 L 18.8125 -1.90625 C 18.8125 -1.394531 18.632812 -0.945312 18.28125 -0.5625 C 17.925781 -0.1875 17.46875 0 16.90625 0 L 5.71875 0 C 5.207031 0 4.757812 -0.1875 4.375 -0.5625 C 4 -0.945312 3.8125 -1.394531 3.8125 -1.90625 L 3.8125 -54.6875 C 3.8125 -55.238281 4 -55.691406 4.375 -56.046875 C 4.757812 -56.398438 5.207031 -56.578125 5.71875 -56.578125 Z M 16.90625 -56.578125 "/></g></g></g></svg>